<?xml version="1.0" standalone="no"?>
<!DOCTYPE svg PUBLIC "-//W3C//DTD SVG 20010904//EN"
 "http://www.w3.org/TR/2001/REC-SVG-20010904/DTD/svg10.dtd">
<svg version="1.0" xmlns="http://www.w3.org/2000/svg"
 width="450.000000pt" height="80.000000pt" viewBox="0 0 450.000000 80.000000"
 preserveAspectRatio="xMidYMid meet">
<metadata>
Created by potrace 1.16, written by Peter Selinger 2001-2019
</metadata>
<g transform="translate(0.000000,80.000000) scale(0.100000,-0.100000)"
fill="#000000" stroke="none">
<path d="M4040 685 l0 -75 -37 0 c-54 0 -67 -11 -58 -49 6 -26 12 -32 44 -37
l37 -6 10 -183 c11 -211 13 -214 101 -242 74 -23 107 -12 111 40 l3 37 -43 0
c-24 0 -49 4 -56 8 -23 15 -32 75 -32 209 l0 133 29 0 c16 0 43 3 60 6 30 6
32 9 29 43 l-3 36 -57 3 -57 3 -3 71 -3 71 -37 4 -38 4 0 -76z"/>
<path d="M1335 623 c-11 -3 -39 -18 -62 -34 -50 -35 -61 -36 -65 -6 -2 18 -10
23 -40 25 l-38 3 0 -260 0 -261 50 0 50 0 0 176 0 175 32 40 c57 71 151 75
199 7 24 -33 27 -63 28 -280 l1 -118 46 0 46 0 -4 202 c-3 143 -8 210 -17 228
-19 36 -52 70 -82 85 -30 16 -114 26 -144 18z"/>
<path d="M1824 615 c-48 -21 -121 -102 -138 -153 -9 -25 -16 -77 -16 -115 0
-59 5 -78 30 -122 57 -100 134 -139 257 -133 69 4 88 9 123 33 47 33 94 98
109 152 37 132 -27 281 -143 334 -49 22 -175 25 -222 4z m183 -86 c17 -5 44
-30 62 -54 28 -39 31 -51 31 -115 0 -88 -21 -128 -86 -166 -37 -22 -54 -26
-91 -21 -51 5 -120 49 -141 87 -17 32 -11 165 8 205 31 61 136 93 217 64z"/>
<path d="M2487 620 c-15 -4 -46 -22 -70 -40 l-42 -31 -5 28 c-4 24 -10 28 -43
31 l-37 3 0 -260 0 -261 49 0 50 0 3 181 3 180 42 39 c50 48 82 57 131 39 28
-11 43 -26 60 -59 20 -41 22 -58 22 -212 l0 -168 46 0 46 0 -4 202 c-3 143 -8
210 -17 228 -19 36 -52 70 -82 85 -34 18 -117 26 -152 15z"/>
<path d="M3056 620 c-16 -5 -46 -23 -68 -40 l-38 -31 0 24 c0 28 -16 37 -66
37 l-34 0 0 -260 0 -260 50 0 50 0 0 169 c0 104 4 172 10 176 6 4 8 10 6 14
-3 4 7 23 22 41 47 55 164 57 200 2 18 -28 20 -47 21 -254 l1 -148 45 0 45 0
0 189 c0 235 -14 287 -91 326 -35 19 -117 26 -153 15z"/>
<path d="M3558 620 c-47 -14 -96 -63 -129 -127 -27 -53 -32 -74 -32 -135 -1
-88 25 -149 89 -208 48 -44 95 -60 174 -60 86 0 127 16 183 72 42 42 48 52 36
63 -28 27 -64 28 -95 2 -70 -58 -123 -69 -194 -41 -43 17 -70 49 -88 101 -8
26 -8 33 5 37 8 3 100 6 204 6 l189 0 0 34 c0 68 -46 177 -90 214 -39 33 -96
52 -160 51 -36 0 -77 -4 -92 -9z m172 -97 c24 -14 70 -85 70 -107 0 -9 -286
-3 -295 6 -13 13 39 90 70 103 43 19 122 18 155 -2z"/>
</g>
</svg>
